<?xml version="1.0" encoding="utf-8"?>
<!-- Generator: Adobe Illustrator 25.2.1, SVG Export Plug-In . SVG Version: 6.00 Build 0)  -->
<svg version="1.0" id="Layer_1" xmlns="http://www.w3.org/2000/svg" xmlns:xlink="http://www.w3.org/1999/xlink" x="0px" y="0px"
	 viewBox="0 0 500 500" style="enable-background:new 0 0 500 500;" xml:space="preserve">
<style type="text/css">
	.st0{fill:#30B44A;}
	.st1{fill:#23A6DF;}
	.st2{fill:#FFE302;}
	.st3{fill:none;}
</style>
<g>
	<path class="st0" d="M96.5,113.7c0,0,42.9,65,99.6,77.2c-21.3-18.4-114.8-50-72-179.4C139.9,119.6,346.8,97.9,272,273.1
		C202,206.2,102.9,225.9,96.5,113.7z"/>
	<path class="st1" d="M265.3,283.5c-50.6,91.6-69.7,45.8-125.7,111.8c-5.8-66.3,46.8-82.8,46.8-82.8s-15.7-10-60.5,16
		C148.5,289,214.8,283.5,265.3,283.5z"/>
	<path class="st2" d="M415.7,127.7c-141.3-81.2-58,114.4-171.4,203.1C480.5,227.9,308.8,153.4,415.7,127.7z"/>
</g>
<rect x="-35.6" y="453" class="st3" width="571.3" height="68.5"/>
<g>
	<path d="M55.2,469.5v-37.8h10.8c7.2,0,11.7,3.1,11.7,10.2c0,7.2-5.5,10.4-11.7,10.4h-8.3v17.2H55.2z M57.7,450.1H66
		c5,0,9.2-2.6,9.2-8.2c0-5.6-3.4-8-9.2-8h-8.3V450.1z"/>
	<path d="M85,469.5v-37.8h20v2.2H87.5v14.6h16.4v2.2H87.5v16.4H105v2.2H85z"/>
	<path d="M107.5,469.5l15.6-37.8h2.7l15.6,37.8h-2.7l-4.5-10.8h-19.5l-4.4,10.8H107.5z M115.5,456.6h18.1l-9.1-21.9L115.5,456.6z"/>
	<path d="M143.7,450.6c0-11.5,8-19.7,19-19.7c7.7,0,14,4.1,17,10.4l-2.3,1c-2.6-5.6-8.1-9.1-14.7-9.1c-9.6,0-16.5,7.2-16.5,17.5
		c0,10.2,7,17.4,16.5,17.4c6.7,0,12.2-3.6,14.8-9.3l2.3,1c-2.9,6.4-9.3,10.6-17.1,10.6C151.7,470.4,143.7,462.2,143.7,450.6z"/>
	<path d="M186.9,469.5v-37.8h20v2.2h-17.5v14.6h16.4v2.2h-16.4v16.4H207v2.2H186.9z"/>
	<path d="M214.4,469.5v-37.8h20v2.2h-17.5v14.7h16.4v2.2h-16.4v18.7H214.4z"/>
	<path d="M240.8,456.3v-24.6h2.5v24.6c0,6.8,4.9,11.8,12.7,11.8c7.8,0,12.7-5,12.7-11.8v-24.6h2.5v24.6c0,8.1-5.9,14-15.2,14
		C246.7,470.4,240.8,464.4,240.8,456.3z"/>
	<path d="M281.7,469.5v-37.8h2.5v35.5h17.5v2.2H281.7z"/>
	<path d="M324.8,469.5l4.9-37.8h2.6l14.6,33.8l14.6-33.8h2.6l4.9,37.8h-2.5l-4.3-33.7l-14.5,33.7H346l-14.5-33.7l-4.3,33.7H324.8z"
		/>
	<path d="M372.3,469.5l15.6-37.8h2.7l15.6,37.8h-2.7l-4.5-10.8h-19.5l-4.4,10.8H372.3z M380.3,456.6h18.1l-9-21.9L380.3,456.6z"/>
	<path d="M412.1,469.5v-37.8h2.5v35.5h17.5v2.2H412.1z"/>
	<path d="M436.9,469.5v-37.8h2.5v35.5h17.5v2.2H436.9z"/>
</g>
</svg>
